<svg width="160" height="35" viewBox="0 0 160 35" fill="none" xmlns="http://www.w3.org/2000/svg">
<path d="M141.101 35V8.04258H143.929L144.189 11.0958C144.586 10.5 145.094 9.94152 145.714 9.42024C146.334 8.87414 147.078 8.43975 147.947 8.11705C148.815 7.76953 149.807 7.59577 150.923 7.59577C152.758 7.59577 154.345 8.03017 155.685 8.89896C157.049 9.76776 158.103 10.9468 158.847 12.4362C159.616 13.9007 160 15.5763 160 17.4628C160 19.3493 159.616 21.0372 158.847 22.5266C158.103 23.9911 157.049 25.1454 155.685 25.9894C154.32 26.8333 152.721 27.2553 150.885 27.2553C149.373 27.2553 148.033 26.945 146.868 26.3245C145.727 25.7039 144.846 24.8351 144.226 23.7181V35H141.101ZM150.551 24.5372C151.766 24.5372 152.845 24.2394 153.787 23.6436C154.73 23.0479 155.461 22.2287 155.982 21.1862C156.528 20.1188 156.801 18.8653 156.801 17.4256C156.801 16.0107 156.528 14.7695 155.982 13.7022C155.461 12.6348 154.73 11.8032 153.787 11.2075C152.845 10.6117 151.766 10.3139 150.551 10.3139C149.311 10.3139 148.219 10.6117 147.277 11.2075C146.334 11.8032 145.603 12.6348 145.082 13.7022C144.561 14.7695 144.301 16.0107 144.301 17.4256C144.301 18.8653 144.561 20.1188 145.082 21.1862C145.603 22.2287 146.334 23.0479 147.277 23.6436C148.219 24.2394 149.311 24.5372 150.551 24.5372Z" fill="black"/>
<path d="M128.124 27.2553C126.388 27.2553 116.188 26.8582 114.799 26.0638C113.41 25.2447 112.319 24.1028 111.525 22.6383C110.732 21.1489 110.335 19.4238 110.335 17.4628C110.335 15.4521 110.732 13.7146 111.525 12.25C112.344 10.7607 113.448 9.61882 114.836 8.8245C116.25 8.00535 126.462 7.59577 128.198 7.59577C129.984 7.59577 131.559 8.00535 132.923 8.8245C134.312 9.61882 135.403 10.7607 136.197 12.25C137.015 13.7146 137.424 15.4397 137.424 17.4256C137.424 19.4114 137.015 21.1489 136.197 22.6383C135.378 24.1028 134.275 25.2447 132.886 26.0638C131.497 26.8582 129.91 27.2553 128.124 27.2553ZM128.161 24.5745C129.228 24.5745 130.22 24.3138 131.137 23.7926C132.055 23.2465 132.799 22.4397 133.369 21.3724C133.94 20.305 134.225 18.9894 134.225 17.4256C134.225 15.8369 133.94 14.5213 133.369 13.4787C132.824 12.4114 132.092 11.617 131.175 11.0958C130.282 10.5497 129.29 10.2766 128.198 10.2766C127.157 10.2766 117.527 10.5497 116.585 11.0958C115.667 11.617 114.923 12.4114 114.353 13.4787C113.807 14.5213 113.534 15.8369 113.534 17.4256C113.534 18.9894 113.807 20.305 114.353 21.3724C114.923 22.4397 115.655 23.2465 116.548 23.7926C117.465 24.3138 127.095 24.5745 128.161 24.5745Z" fill="#5D5FEF"/>
<path d="M89.4441 26.8085V0H92.5691V11.2074C93.1891 10.0904 94.0571 9.20921 95.1732 8.56382C96.3141 7.91843 97.5541 7.59574 98.8934 7.59574C100.332 7.59574 101.584 7.89361 102.651 8.48935C103.717 9.06027 104.536 9.94148 105.106 11.133C105.677 12.3245 105.962 13.8262 105.962 15.6383V26.8085H102.874V15.9734C102.874 14.0869 102.477 12.672 101.684 11.7287C100.89 10.7606 99.7367 10.2766 98.2238 10.2766C97.1573 10.2766 96.1901 10.5372 95.322 11.0585C94.4788 11.5798 93.8091 12.3245 93.3131 13.2925C92.8171 14.2606 92.5691 15.4521 92.5691 16.867V26.8085H89.4441Z" fill="black"/>
<path d="M76.0727 27.2553C74.163 27.2553 72.5013 26.9077 71.0876 26.2127C69.6739 25.5177 68.5826 24.5496 67.8138 23.3085C67.045 22.0673 66.6605 20.6276 66.6605 18.9893H69.9343C69.9343 20.007 70.1699 20.9503 70.6412 21.8191C71.1124 22.6631 71.7944 23.3457 72.6873 23.867C73.6049 24.3634 74.7334 24.6116 76.0727 24.6116C77.2383 24.6116 78.2304 24.4255 79.0488 24.0531C79.8921 23.656 80.5245 23.1223 80.9461 22.4521C81.3926 21.7819 81.6158 21.0248 81.6158 20.1808C81.6158 19.1631 81.3926 18.3439 80.9461 17.7234C80.5245 17.078 79.9417 16.5567 79.1976 16.1595C78.4536 15.7624 77.5856 15.4148 76.5935 15.117C75.6262 14.7943 74.6094 14.4592 73.5429 14.1117C71.4844 13.4166 69.9715 12.5478 69.0043 11.5053C68.037 10.4627 67.5534 9.10989 67.5534 7.44677C67.5534 6.03188 67.8758 4.79074 68.5206 3.72337C69.1903 2.65599 70.1327 1.82443 71.348 1.22869C72.5881 0.608124 74.0513 0.297842 75.7378 0.297842C77.3995 0.297842 78.838 0.608124 80.0533 1.22869C81.2934 1.84926 82.2606 2.70564 82.955 3.79784C83.6495 4.86521 83.9967 6.10634 83.9967 7.52124H80.7229C80.7229 6.80138 80.5369 6.09393 80.1649 5.3989C79.7929 4.70386 79.2224 4.13294 78.4536 3.68613C77.7096 3.2145 76.7671 2.97869 75.6262 2.97869C74.6838 2.95387 73.8405 3.11521 73.0965 3.46273C72.3773 3.78543 71.8068 4.25706 71.3852 4.87762C70.9884 5.49819 70.79 6.25528 70.79 7.1489C70.79 7.99287 70.9636 8.67549 71.3108 9.19677C71.6828 9.71804 72.2036 10.1649 72.8733 10.5372C73.5677 10.8847 74.3738 11.2074 75.2914 11.5053C76.2091 11.8031 77.2259 12.1383 78.342 12.5106C79.6069 12.9326 80.7229 13.4539 81.6902 14.0744C82.6822 14.6702 83.4511 15.4397 83.9967 16.3829C84.5671 17.3262 84.8524 18.5301 84.8524 19.9946C84.8524 21.2358 84.5175 22.4148 83.8479 23.5319C83.2031 24.6241 82.2358 25.5177 80.9461 26.2127C79.6565 26.9077 78.032 27.2553 76.0727 27.2553Z" fill="black"/>
<path d="M54.9281 27.2553C53.1672 27.2553 51.6047 26.8581 50.2407 26.0638C48.8766 25.2447 47.7977 24.1152 47.0041 22.6755C46.2352 21.211 45.8508 19.5106 45.8508 17.5745C45.8508 15.6135 46.2352 13.9131 47.0041 12.4734C47.7729 11.0337 48.8394 9.91666 50.2035 9.12234C51.5923 8.30319 53.192 7.89362 55.0025 7.89362C56.813 7.89362 58.3631 8.30319 59.6528 9.12234C60.9425 9.91666 61.9345 10.9716 62.629 12.2872C63.3234 13.578 63.6706 14.9929 63.6706 16.5319C63.6706 16.7801 63.6706 17.0532 63.6706 17.3511C63.6706 17.6241 63.6582 17.9344 63.6334 18.2819H48.1945V15.8617H60.5829C60.5084 14.1241 59.938 12.7837 58.8716 11.8404C57.8299 10.8723 56.5154 10.3883 54.9281 10.3883C53.8617 10.3883 52.8696 10.6241 51.952 11.0957C51.0343 11.5674 50.2903 12.2748 49.7198 13.2181C49.1742 14.1365 48.9014 15.3032 48.9014 16.7181V17.7606C48.9014 19.2996 49.1866 20.578 49.757 21.5957C50.3275 22.6135 51.0715 23.383 51.9892 23.9042C52.9068 24.4007 53.8865 24.6489 54.9281 24.6489C56.2178 24.6489 57.2967 24.351 58.1647 23.7553C59.0328 23.1596 59.6652 22.3404 60.062 21.2979H63.1498C62.8274 22.4397 62.2941 23.4574 61.5501 24.351C60.8061 25.2447 59.876 25.9521 58.7599 26.4734C57.6687 26.9947 56.3914 27.2553 54.9281 27.2553Z" fill="black"/>
<path d="M41.2882 26.8084L32.8433 16.6436L40.3954 8.34037H44.2272L36.0177 16.6436L35.001 15.5265L45.2688 26.8084H41.2882ZM29.7183 26.8084V0.446763H32.8433V26.8084H29.7183Z" fill="black"/>
<path d="M21.9342 26.8084V8.34033H25.0592V26.8084H21.9342ZM23.4967 4.50523C22.8767 4.50523 22.3558 4.30665 21.9342 3.90949C21.5126 3.4875 21.3018 2.95381 21.3018 2.30842C21.3018 1.71268 21.5126 1.21623 21.9342 0.819064C22.3558 0.397078 22.8767 0.186084 23.4967 0.186084C24.0919 0.186084 24.6004 0.397078 25.022 0.819064C25.4436 1.21623 25.6544 1.72509 25.6544 2.34566C25.6544 2.9414 25.4436 3.45027 25.022 3.87225C24.6004 4.29424 24.0919 4.50523 23.4967 4.50523Z" fill="black"/>
<path d="M0 26.8084V0.744605H9.15172C10.987 0.744605 12.4999 1.04248 13.6904 1.63822C14.9056 2.20914 15.8109 3.00347 16.4061 4.0212C17.0014 5.0141 17.299 6.13113 17.299 7.37226C17.299 8.71268 17.0014 9.8297 16.4061 10.7233C15.8357 11.6169 15.0793 12.2996 14.1368 12.7712C13.2191 13.2428 12.2395 13.5283 11.1978 13.6276L11.7187 13.2552C12.8347 13.2801 13.864 13.5779 14.8064 14.1488C15.7489 14.7198 16.4929 15.4893 17.0386 16.4574C17.609 17.4254 17.8942 18.5052 17.8942 19.6967C17.8942 21.0123 17.5718 22.2162 16.927 23.3084C16.2821 24.3758 15.3273 25.2322 14.0624 25.8776C12.8223 26.4981 11.2846 26.8084 9.44933 26.8084H0ZM3.12498 24.202H9.11452C10.8754 24.202 12.2395 23.7925 13.2067 22.9733C14.1988 22.1293 14.6948 20.9627 14.6948 19.4733C14.6948 18.0088 14.1864 16.8421 13.1695 15.9733C12.1775 15.0797 10.801 14.6329 9.04011 14.6329H3.12498V24.202ZM3.12498 12.1382H8.9285C10.615 12.1382 11.8923 11.741 12.7603 10.9467C13.6532 10.1524 14.0996 9.07261 14.0996 7.70736C14.0996 6.39176 13.6532 5.3368 12.7603 4.54247C11.8923 3.74815 10.5778 3.35098 8.8169 3.35098H3.12498V12.1382Z" fill="black"/>
</svg>
